<svg width="2652" height="1365" viewBox="0 0 2652 1365" fill="none" xmlns="http://www.w3.org/2000/svg">
<g clip-path="url(#clip0_67_527)">
<mask id="mask0_67_527" style="mask-type:luminance" maskUnits="userSpaceOnUse" x="1" y="2" width="2650" height="1362">
<g clip-path="url(#clip1_67_527)">
<g clip-path="url(#clip2_67_527)">
<g clip-path="url(#clip3_67_527)">
<g clip-path="url(#clip4_67_527)">
<path d="M182.368 162.386C82.8813 162.386 1.95508 233.513 1.95508 320.935C1.95508 408.357 82.8984 479.469 182.368 479.469C281.838 479.469 362.781 408.342 362.781 320.935C362.781 233.513 281.838 162.386 182.368 162.386Z" fill="black"/>
<path d="M643.246 474.845C742.733 474.845 823.659 403.718 823.659 316.311C823.659 228.875 742.716 157.762 643.246 157.762C543.776 157.762 462.833 228.89 462.833 316.311C462.833 403.733 543.776 474.845 643.246 474.845Z" fill="black"/>
<path d="M182.368 567.312C82.8813 567.312 1.95508 638.44 1.95508 725.862C1.95508 813.283 82.8984 884.395 182.368 884.395C281.838 884.395 362.781 813.268 362.781 725.862C362.781 638.44 281.838 567.312 182.368 567.312Z" fill="black"/>
<path d="M643.246 562.674C543.759 562.674 462.833 633.801 462.833 721.223C462.833 808.645 543.776 879.757 643.246 879.757C742.716 879.757 823.659 808.63 823.659 721.223C823.676 633.801 742.733 562.674 643.246 562.674Z" fill="black"/>
<path d="M643.246 1049.77C621.796 1049.78 601.23 1057.28 586.061 1070.6C570.892 1083.93 562.36 1102 562.337 1120.85C562.355 1139.7 570.885 1157.78 586.054 1171.11C601.223 1184.44 621.792 1191.94 643.246 1191.96C664.699 1191.94 685.265 1184.44 700.433 1171.11C715.601 1157.77 724.132 1139.7 724.155 1120.85C724.128 1102 715.594 1083.93 700.426 1070.61C685.258 1057.28 664.694 1049.79 643.246 1049.77Z" fill="black"/>
<path d="M182.368 1065.7C160.918 1065.72 140.352 1073.21 125.183 1086.54C110.014 1099.86 101.482 1117.93 101.459 1136.78C101.459 1176 137.74 1207.89 182.368 1207.89C226.996 1207.89 263.277 1176 263.277 1136.78C263.25 1117.93 254.716 1099.87 239.548 1086.54C224.38 1073.21 203.817 1065.72 182.368 1065.7Z" fill="black"/>
</g>
</g>
</g>
</g>
</mask>
<g mask="url(#mask0_67_527)">
<path d="M2650.05 2.64185H1.95508V1363.01H2650.05V2.64185Z" fill="url(#paint0_linear_67_527)"/>
</g>
<mask id="mask1_67_527" style="mask-type:luminance" maskUnits="userSpaceOnUse" x="1" y="2" width="2650" height="1362">
<g clip-path="url(#clip5_67_527)">
<g clip-path="url(#clip6_67_527)">
<g clip-path="url(#clip7_67_527)">
<g clip-path="url(#clip8_67_527)">
<path d="M170.444 162.386C77.5328 162.386 1.95508 233.513 1.95508 320.935C1.95508 408.357 77.5488 479.469 170.444 479.469C263.34 479.469 338.934 408.342 338.934 320.935C338.934 233.513 263.34 162.386 170.444 162.386Z" fill="white"/>
<path d="M600.862 474.845C693.774 474.845 769.352 403.718 769.352 316.311C769.352 228.875 693.758 157.762 600.862 157.762C507.967 157.762 432.373 228.89 432.373 316.311C432.373 403.733 507.967 474.845 600.862 474.845Z" fill="white"/>
<path d="M170.444 567.312C77.5328 567.312 1.95508 638.44 1.95508 725.862C1.95508 813.283 77.5488 884.395 170.444 884.395C263.34 884.395 338.934 813.268 338.934 725.862C338.934 638.44 263.34 567.312 170.444 567.312Z" fill="white"/>
<path d="M600.862 562.674C507.951 562.674 432.373 633.801 432.373 721.223C432.373 808.645 507.967 879.757 600.862 879.757C693.758 879.757 769.352 808.63 769.352 721.223C769.368 633.801 693.774 562.674 600.862 562.674Z" fill="white"/>
<path d="M600.863 1049.77C580.83 1049.78 561.623 1057.28 547.457 1070.6C533.29 1083.93 525.322 1102 525.301 1120.85C525.318 1139.7 533.284 1157.78 547.45 1171.11C561.616 1184.44 580.826 1191.94 600.863 1191.96C620.898 1191.94 640.105 1184.44 654.27 1171.11C668.436 1157.77 676.403 1139.7 676.424 1120.85C676.399 1102 668.429 1083.93 654.264 1070.61C640.098 1057.28 620.893 1049.79 600.863 1049.77Z" fill="white"/>
<path d="M170.445 1065.7C150.412 1065.72 131.205 1073.21 117.039 1086.54C102.872 1099.86 94.904 1117.93 94.8828 1136.78C94.8828 1176 128.766 1207.89 170.445 1207.89C212.123 1207.89 246.006 1176 246.006 1136.78C245.981 1117.93 238.011 1099.87 223.846 1086.54C209.68 1073.21 190.475 1065.72 170.445 1065.7Z" fill="white"/>
</g>
</g>
<path d="M1040.89 1165V1066.56L1488.33 424.801H1038.33V292.273H1684.35V390.71L1237.34 1032.47H1686.91V1165H1040.89ZM1951.97 1165H1783.22L2090.46 292.273H2285.63L2593.3 1165H2424.55L2191.45 471.25H2184.64L1951.97 1165ZM1957.51 822.812H2417.73V949.801H1957.51V822.812Z" fill="#D9D9D9"/>
</g>
</g>
</mask>
<g mask="url(#mask1_67_527)">
<path d="M2649.63 2.64185H1.6084V1397.99H2649.63V2.64185Z" fill="url(#paint1_linear_67_527)"/>
</g>
</g>
<defs>
<linearGradient id="paint0_linear_67_527" x1="144.952" y1="682.828" x2="2493.81" y2="682.828" gradientUnits="userSpaceOnUse">
<stop stop-color="#0F3054"/>
<stop offset="0.498" stop-color="#3B8DCB"/>
<stop offset="1" stop-color="#0F3054"/>
</linearGradient>
<linearGradient id="paint1_linear_67_527" x1="144.602" y1="700.318" x2="2493.4" y2="700.318" gradientUnits="userSpaceOnUse">
<stop stop-color="#0F3054"/>
<stop offset="0.498" stop-color="#3B8DCB"/>
<stop offset="1" stop-color="#0F3054"/>
</linearGradient>
<clipPath id="clip0_67_527">
<rect width="2648.09" height="1360.37" fill="white" transform="translate(1.95508 2.64185)"/>
</clipPath>
<clipPath id="clip1_67_527">
<rect width="2648.09" height="1360.37" fill="white" transform="translate(1.95508 2.64185)"/>
</clipPath>
<clipPath id="clip2_67_527">
<rect width="2648.09" height="1360.37" fill="white" transform="translate(1.95508 2.64185)"/>
</clipPath>
<clipPath id="clip3_67_527">
<rect width="821.704" height="1050.13" fill="white" transform="translate(1.95508 157.762)"/>
</clipPath>
<clipPath id="clip4_67_527">
<rect width="821.704" height="1050.13" fill="white" transform="translate(1.95508 157.762)"/>
</clipPath>
<clipPath id="clip5_67_527">
<rect width="2648.09" height="1360.37" fill="white" transform="translate(1.95508 2.64185)"/>
</clipPath>
<clipPath id="clip6_67_527">
<rect width="2648.09" height="1360.37" fill="white" transform="translate(1.95508 2.64185)"/>
</clipPath>
<clipPath id="clip7_67_527">
<rect width="767.397" height="1050.13" fill="white" transform="translate(1.95508 157.762)"/>
</clipPath>
<clipPath id="clip8_67_527">
<rect width="767.397" height="1050.13" fill="white" transform="translate(1.95508 157.762)"/>
</clipPath>
</defs>
</svg>
