<svg xmlns="http://www.w3.org/2000/svg" version="1.1" xmlns:xlink="http://www.w3.org/1999/xlink" xmlns:svgjs="http://svgjs.dev/svgjs" width="2000" height="1232" viewBox="0 0 2000 1232"><g transform="matrix(1,0,0,1,-1.2121212121212466,-1.7932015978125264)"><svg viewBox="0 0 396 244" data-background-color="#ffffff" preserveAspectRatio="xMidYMid meet" height="1232" width="2000" xmlns="http://www.w3.org/2000/svg" xmlns:xlink="http://www.w3.org/1999/xlink"><g id="tight-bounds" transform="matrix(1,0,0,1,0.2400000000000091,0.3551470696966277)"><svg viewBox="0 0 395.52 243.28970586060674" height="243.28970586060674" width="395.52"><g><svg viewBox="0 0 401.8770282702341 247.20000000000002" height="243.28970586060674" width="395.52"><g transform="matrix(1,0,0,1,189.56612526020066,0)"><svg viewBox="0 0 212.31090301003346 247.20000000000002" height="247.20000000000002" width="212.31090301003346"><g id="textblocktransform"><svg viewBox="0 0 212.31090301003346 247.20000000000002" height="247.20000000000002" width="212.31090301003346" id="textblock"><g><svg viewBox="0 0 212.31090301003346 247.20000000000002" height="247.20000000000002" width="212.31090301003346"><g transform="matrix(1,0,0,1,0,0)"><svg width="212.31090301003346" viewBox="3 -35.74 31.35 36.5" height="247.20000000000002" data-palette-color="url(#f64e3a8e-908b-49b8-825f-18e754fb4e10)"></svg></g></svg></g></svg></g></svg></g><g transform="matrix(1,0,0,1,0,28.187716965137838)"><svg viewBox="0 0 131.20813806020067 190.82456606972434" height="190.82456606972434" width="131.20813806020067"><g><svg xmlns="http://www.w3.org/2000/svg" xmlns:xlink="http://www.w3.org/1999/xlink" version="1.1" x="0" y="0" viewBox="26.027 15.135 47.94600015876807 69.731" enable-background="new 0 0 100 100" xml:space="preserve" height="190.82456606972434" width="131.20813806020067" class="icon-icon-0" data-fill-palette-color="accent" id="icon-0"></svg></g></svg></g></svg></g><defs></defs><mask id="d781a8e2-8150-46f0-9a70-30f9d9b678e8"><g id="SvgjsG3000"><svg viewBox="0 0 395.52 243.28970586060674" height="243.28970586060674" width="395.52"><g><svg viewBox="0 0 401.8770282702341 247.20000000000002" height="243.28970586060674" width="395.52"><g transform="matrix(1,0,0,1,189.56612526020066,0)"><svg viewBox="0 0 212.31090301003346 247.20000000000002" height="247.20000000000002" width="212.31090301003346"><g id="SvgjsG2999"><svg viewBox="0 0 212.31090301003346 247.20000000000002" height="247.20000000000002" width="212.31090301003346" id="SvgjsSvg2998"><g><svg viewBox="0 0 212.31090301003346 247.20000000000002" height="247.20000000000002" width="212.31090301003346"><g transform="matrix(1,0,0,1,0,0)"><svg width="212.31090301003346" viewBox="3 -35.74 31.35 36.5" height="247.20000000000002" data-palette-color="url(#f64e3a8e-908b-49b8-825f-18e754fb4e10)"><path d="M8.37-4.63Q3-10.01 3-17.5 3-25 8.37-30.37 13.75-35.74 21.24-35.74L21.24-35.74Q27.34-35.74 32.35-31.96L32.35-31.96 29.44-29.05Q25.63-31.96 21.24-31.96L21.24-31.96Q15.55-31.96 11.52-27.71 7.5-23.46 7.5-17.5 7.5-11.55 11.52-7.3 15.55-3.05 21.24-3.05L21.24-3.05Q26.1-3.05 29.86-6.25L29.86-6.25 29.86-14.99 23.14-14.99 23.14-18.19 34.35-18.19 34.35-4.81Q32.81-3.27 31.35-2.29L31.35-2.29Q26.76 0.76 21.24 0.76L21.24 0.76Q13.75 0.76 8.37-4.63Z" opacity="1" transform="matrix(1,0,0,1,0,0)" fill="white" class="wordmark-text-0" id="SvgjsPath2997"></path></svg></g></svg></g></svg></g></svg></g><g transform="matrix(1,0,0,1,0,28.187716965137838)"><svg viewBox="0 0 131.20813806020067 190.82456606972434" height="190.82456606972434" width="131.20813806020067"><g><svg xmlns="http://www.w3.org/2000/svg" xmlns:xlink="http://www.w3.org/1999/xlink" version="1.1" x="0" y="0" viewBox="26.027 15.135 47.94600015876807 69.731" enable-background="new 0 0 100 100" xml:space="preserve" height="190.82456606972434" width="131.20813806020067" class="icon-icon-0" data-fill-palette-color="accent" id="SvgjsSvg2996"><g fill="black"><path fill="black" d="M36.554 15.442C30.749 15.442 26.027 20.165 26.027 25.97S30.75 36.497 36.554 36.497 47.081 31.774 47.081 25.97C47.081 20.165 42.358 15.442 36.554 15.442"></path><path fill="black" d="M63.446 36.19C69.251 36.19 73.973 31.467 73.973 25.663 73.973 19.857 69.25 15.135 63.446 15.135S52.919 19.858 52.919 25.663 57.642 36.19 63.446 36.19"></path><path fill="black" d="M36.554 42.33C30.749 42.33 26.027 47.053 26.027 52.858S30.75 63.385 36.554 63.385 47.081 58.662 47.081 52.858C47.081 47.053 42.358 42.33 36.554 42.33"></path><path fill="black" d="M63.446 42.022C57.641 42.022 52.919 46.745 52.919 52.55S57.642 63.077 63.446 63.077 73.973 58.354 73.973 52.55C73.974 46.745 69.251 42.022 63.446 42.022"></path><path fill="black" d="M63.446 74.366A4.725 4.725 0 0 0 58.725 79.086 4.726 4.726 0 0 0 63.446 83.808 4.727 4.727 0 0 0 68.167 79.086 4.726 4.726 0 0 0 63.446 74.366"></path><path fill="black" d="M36.554 75.424A4.725 4.725 0 0 0 31.833 80.144C31.833 82.748 33.95 84.866 36.554 84.866S41.275 82.748 41.275 80.144A4.726 4.726 0 0 0 36.554 75.424"></path></g></svg></g></svg></g></svg></g><defs><mask></mask></defs></svg><rect width="395.52" height="243.28970586060674" fill="black" stroke="none" visibility="hidden"></rect></g></mask><linearGradient x1="0.054" x2="0.941" y1="0.5" y2="0.5" id="f64e3a8e-908b-49b8-825f-18e754fb4e10"><stop stop-color="#0f3054" offset="0"></stop><stop stop-color="#3b8dcb" offset="0.498"></stop><stop stop-color="#0f3054" offset="1"></stop></linearGradient><rect width="395.52" height="243.28970586060674" fill="url(#f64e3a8e-908b-49b8-825f-18e754fb4e10)" mask="url(#d781a8e2-8150-46f0-9a70-30f9d9b678e8)" data-fill-palette-color="primary"></rect><mask id="1f4e6a26-2a33-4606-acb0-de0a72d68e26"><g id="SvgjsG3009"><svg viewBox="0 0 395.52 243.28970586060674" height="243.28970586060674" width="395.52"><g><svg viewBox="0 0 401.8770282702341 247.20000000000002" height="243.28970586060674" width="395.52"><g transform="matrix(1,0,0,1,189.56612526020066,0)"><svg viewBox="0 0 212.31090301003346 247.20000000000002" height="247.20000000000002" width="212.31090301003346"><g id="SvgjsG3008"><svg viewBox="0 0 212.31090301003346 247.20000000000002" height="247.20000000000002" width="212.31090301003346" id="SvgjsSvg3007"><g><svg viewBox="0 0 212.31090301003346 247.20000000000002" height="247.20000000000002" width="212.31090301003346"><g transform="matrix(1,0,0,1,0,0)"><svg width="212.31090301003346" viewBox="3 -35.74 31.35 36.5" height="247.20000000000002" data-palette-color="url(#f64e3a8e-908b-49b8-825f-18e754fb4e10)"></svg></g></svg></g></svg></g></svg></g><g transform="matrix(1,0,0,1,0,28.187716965137838)"><svg viewBox="0 0 131.20813806020067 190.82456606972434" height="190.82456606972434" width="131.20813806020067"><g><svg xmlns="http://www.w3.org/2000/svg" xmlns:xlink="http://www.w3.org/1999/xlink" version="1.1" x="0" y="0" viewBox="26.027 15.135 47.94600015876807 69.731" enable-background="new 0 0 100 100" xml:space="preserve" height="190.82456606972434" width="131.20813806020067" class="icon-icon-0" data-fill-palette-color="accent" id="SvgjsSvg3006"><g fill="white"><path fill="white" d="M36.554 15.442C30.749 15.442 26.027 20.165 26.027 25.97S30.75 36.497 36.554 36.497 47.081 31.774 47.081 25.97C47.081 20.165 42.358 15.442 36.554 15.442"></path><path fill="white" d="M63.446 36.19C69.251 36.19 73.973 31.467 73.973 25.663 73.973 19.857 69.25 15.135 63.446 15.135S52.919 19.858 52.919 25.663 57.642 36.19 63.446 36.19"></path><path fill="white" d="M36.554 42.33C30.749 42.33 26.027 47.053 26.027 52.858S30.75 63.385 36.554 63.385 47.081 58.662 47.081 52.858C47.081 47.053 42.358 42.33 36.554 42.33"></path><path fill="white" d="M63.446 42.022C57.641 42.022 52.919 46.745 52.919 52.55S57.642 63.077 63.446 63.077 73.973 58.354 73.973 52.55C73.974 46.745 69.251 42.022 63.446 42.022"></path><path fill="white" d="M63.446 74.366A4.725 4.725 0 0 0 58.725 79.086 4.726 4.726 0 0 0 63.446 83.808 4.727 4.727 0 0 0 68.167 79.086 4.726 4.726 0 0 0 63.446 74.366"></path><path fill="white" d="M36.554 75.424A4.725 4.725 0 0 0 31.833 80.144C31.833 82.748 33.95 84.866 36.554 84.866S41.275 82.748 41.275 80.144A4.726 4.726 0 0 0 36.554 75.424"></path></g></svg></g></svg></g></svg></g><defs><mask></mask></defs><mask><g id="SvgjsG3005"><svg viewBox="0 0 395.52 243.28970586060674" height="243.28970586060674" width="395.52"><g><svg viewBox="0 0 401.8770282702341 247.20000000000002" height="243.28970586060674" width="395.52"><g transform="matrix(1,0,0,1,189.56612526020066,0)"><svg viewBox="0 0 212.31090301003346 247.20000000000002" height="247.20000000000002" width="212.31090301003346"><g id="SvgjsG3004"><svg viewBox="0 0 212.31090301003346 247.20000000000002" height="247.20000000000002" width="212.31090301003346" id="SvgjsSvg3003"><g><svg viewBox="0 0 212.31090301003346 247.20000000000002" height="247.20000000000002" width="212.31090301003346"><g transform="matrix(1,0,0,1,0,0)"><svg width="212.31090301003346" viewBox="3 -35.74 31.35 36.5" height="247.20000000000002" data-palette-color="url(#f64e3a8e-908b-49b8-825f-18e754fb4e10)"><path d="M8.37-4.63Q3-10.01 3-17.5 3-25 8.37-30.37 13.75-35.74 21.24-35.74L21.24-35.74Q27.34-35.74 32.35-31.96L32.35-31.96 29.44-29.05Q25.63-31.96 21.24-31.96L21.24-31.96Q15.55-31.96 11.52-27.71 7.5-23.46 7.5-17.5 7.5-11.55 11.52-7.3 15.55-3.05 21.24-3.05L21.24-3.05Q26.1-3.05 29.86-6.25L29.86-6.25 29.86-14.99 23.14-14.99 23.14-18.19 34.35-18.19 34.35-4.81Q32.81-3.27 31.35-2.29L31.35-2.29Q26.76 0.76 21.24 0.76L21.24 0.76Q13.75 0.76 8.37-4.63Z" opacity="1" transform="matrix(1,0,0,1,0,0)" fill="black" class="wordmark-text-0" id="SvgjsPath3002"></path></svg></g></svg></g></svg></g></svg></g><g transform="matrix(1,0,0,1,0,28.187716965137838)"><svg viewBox="0 0 131.20813806020067 190.82456606972434" height="190.82456606972434" width="131.20813806020067"><g><svg xmlns="http://www.w3.org/2000/svg" xmlns:xlink="http://www.w3.org/1999/xlink" version="1.1" x="0" y="0" viewBox="26.027 15.135 47.94600015876807 69.731" enable-background="new 0 0 100 100" xml:space="preserve" height="190.82456606972434" width="131.20813806020067" class="icon-icon-0" data-fill-palette-color="accent" id="SvgjsSvg3001"><g fill="black"><path fill="black" d="M36.554 15.442C30.749 15.442 26.027 20.165 26.027 25.97S30.75 36.497 36.554 36.497 47.081 31.774 47.081 25.97C47.081 20.165 42.358 15.442 36.554 15.442"></path><path fill="black" d="M63.446 36.19C69.251 36.19 73.973 31.467 73.973 25.663 73.973 19.857 69.25 15.135 63.446 15.135S52.919 19.858 52.919 25.663 57.642 36.19 63.446 36.19"></path><path fill="black" d="M36.554 42.33C30.749 42.33 26.027 47.053 26.027 52.858S30.75 63.385 36.554 63.385 47.081 58.662 47.081 52.858C47.081 47.053 42.358 42.33 36.554 42.33"></path><path fill="black" d="M63.446 42.022C57.641 42.022 52.919 46.745 52.919 52.55S57.642 63.077 63.446 63.077 73.973 58.354 73.973 52.55C73.974 46.745 69.251 42.022 63.446 42.022"></path><path fill="black" d="M63.446 74.366A4.725 4.725 0 0 0 58.725 79.086 4.726 4.726 0 0 0 63.446 83.808 4.727 4.727 0 0 0 68.167 79.086 4.726 4.726 0 0 0 63.446 74.366"></path><path fill="black" d="M36.554 75.424A4.725 4.725 0 0 0 31.833 80.144C31.833 82.748 33.95 84.866 36.554 84.866S41.275 82.748 41.275 80.144A4.726 4.726 0 0 0 36.554 75.424"></path></g></svg></g></svg></g></svg></g><defs><mask></mask></defs></svg><rect width="395.52" height="243.28970586060674" fill="black" stroke="none" visibility="hidden"></rect></g></mask></svg><rect width="395.52" height="243.28970586060674" fill="black" stroke="none" visibility="hidden"></rect></g></mask><linearGradient x1="0.054" x2="0.941" y1="0.5" y2="0.5" id="b33c4f15-e0c6-4fb2-84b1-8d44c248ecb3"><stop stop-color="#0f3054" offset="0"></stop><stop stop-color="#3b8dcb" offset="0.498"></stop><stop stop-color="#0f3054" offset="1"></stop></linearGradient><rect width="395.52" height="243.28970586060674" fill="url(#b33c4f15-e0c6-4fb2-84b1-8d44c248ecb3)" mask="url(#1f4e6a26-2a33-4606-acb0-de0a72d68e26)" data-fill-palette-color="accent"></rect></svg><rect width="395.52" height="243.28970586060674" fill="none" stroke="none" visibility="hidden"></rect></g></svg></g></svg>